<svg width="55" height="55" viewBox="0 0 55 55" fill="none" xmlns="http://www.w3.org/2000/svg">
<path d="M27.5 16.0416H17.1875C15.6681 16.0416 14.2108 15.438 13.1364 14.3636C12.062 13.2891 11.4584 11.8319 11.4584 10.3124C11.4584 8.79295 12.062 7.33571 13.1364 6.26129C14.2108 5.18686 15.6681 4.58325 17.1875 4.58325C25.2084 4.58325 27.5 16.0416 27.5 16.0416ZM27.5 16.0416H37.8125C39.332 16.0416 40.7892 15.438 41.8637 14.3636C42.9381 13.2891 43.5417 11.8319 43.5417 10.3124C43.5417 8.79295 42.9381 7.33571 41.8637 6.26129C40.7892 5.18686 39.332 4.58325 37.8125 4.58325C29.7917 4.58325 27.5 16.0416 27.5 16.0416ZM27.5 16.0416L27.5 50.4166M4.58337 32.0833H50.4167M4.58337 23.3749L4.58337 43.0832C4.58337 45.6502 4.58337 46.9336 5.08293 47.914C5.52235 48.7764 6.22351 49.4776 7.08592 49.917C8.06635 50.4166 9.3498 50.4166 11.9167 50.4166L43.0834 50.4166C45.6503 50.4166 46.9337 50.4166 47.9142 49.917C48.7766 49.4776 49.4777 48.7765 49.9172 47.914C50.4167 46.9336 50.4167 45.6502 50.4167 43.0833V23.3749C50.4167 20.808 50.4167 19.5246 49.9172 18.5441C49.4777 17.6817 48.7766 16.9806 47.9142 16.5411C46.9337 16.0416 45.6503 16.0416 43.0834 16.0416L11.9167 16.0416C9.3498 16.0416 8.06635 16.0416 7.08592 16.5411C6.22351 16.9806 5.52235 17.6817 5.08293 18.5441C4.58337 19.5246 4.58337 20.808 4.58337 23.3749Z" stroke="url(#paint0_linear_121_222)" stroke-width="4" stroke-linecap="round" stroke-linejoin="round"/>
<defs>
<linearGradient id="paint0_linear_121_222" x1="50.4167" y1="45.915" x2="5.44834" y2="44.544" gradientUnits="userSpaceOnUse">
<stop stop-color="#00A3FF"/>
<stop offset="1" stop-color="#006EDC"/>
</linearGradient>
</defs>
</svg>
