<svg width="55" height="55" viewBox="0 0 55 55" fill="none" xmlns="http://www.w3.org/2000/svg">
<path d="M38.9583 25.2083V18.3333C38.9583 12.0051 33.8282 6.875 27.5 6.875C21.1717 6.875 16.0416 12.0051 16.0416 18.3333V25.2083M20.1666 48.125H34.8333C38.6837 48.125 40.6088 48.125 42.0795 47.3757C43.3731 46.7165 44.4248 45.6648 45.084 44.3712C45.8333 42.9005 45.8333 40.9754 45.8333 37.125V36.2083C45.8333 32.358 45.8333 30.4328 45.084 28.9621C44.4248 27.6685 43.3731 26.6168 42.0795 25.9577C40.6088 25.2083 38.6837 25.2083 34.8333 25.2083H20.1666C16.3163 25.2083 14.3911 25.2083 12.9204 25.9577C11.6268 26.6168 10.5751 27.6685 9.91596 28.9621C9.16663 30.4328 9.16663 32.358 9.16663 36.2083V37.125C9.16663 40.9754 9.16663 42.9005 9.91596 44.3712C10.5751 45.6648 11.6268 46.7165 12.9204 47.3757C14.3911 48.125 16.3163 48.125 20.1666 48.125Z" stroke="url(#paint0_linear_121_226)" stroke-width="4" stroke-linecap="round" stroke-linejoin="round"/>
<defs>
<linearGradient id="paint0_linear_121_226" x1="45.8333" y1="44.0736" x2="9.85158" y2="43.0984" gradientUnits="userSpaceOnUse">
<stop stop-color="#00A3FF"/>
<stop offset="1" stop-color="#006EDC"/>
</linearGradient>
</defs>
</svg>
