<svg width="55" height="55" viewBox="0 0 55 55" fill="none" xmlns="http://www.w3.org/2000/svg">
<path d="M29.7917 43.5418H39.6326C43.907 43.5418 46.0442 43.5418 47.2577 42.6462C48.3157 41.8654 48.9873 40.6678 49.1019 39.3579C49.2334 37.8554 48.1189 36.0318 45.89 32.3845L43.6054 28.646M14.0483 24.3038L9.11006 32.3845C6.88117 36.0318 5.76672 37.8554 5.89815 39.3579C6.01274 40.6678 6.68439 41.8654 7.74236 42.6462C8.95585 43.5418 11.0931 43.5418 15.3675 43.5418H19.4792M38.7037 20.6251L33.7574 12.5312C31.6885 9.1457 30.6541 7.45297 29.3224 6.8759C28.1597 6.3721 26.8404 6.3721 25.6777 6.8759C24.346 7.45297 23.3115 9.1457 21.2426 12.5312L18.9055 16.3555M41.25 11.4586L38.7336 20.85L29.3422 18.3336M4.58337 26.579L13.9748 24.0626L16.4912 33.454M35.5209 50.4168L28.6459 43.5418L35.5209 36.6668" stroke="url(#paint0_linear_121_231)" stroke-width="4" stroke-linecap="round" stroke-linejoin="round"/>
<defs>
<linearGradient id="paint0_linear_121_231" x1="49.1123" y1="46.1032" x2="5.42486" y2="44.7527" gradientUnits="userSpaceOnUse">
<stop stop-color="#00A3FF"/>
<stop offset="1" stop-color="#006EDC"/>
</linearGradient>
</defs>
</svg>
