<svg width="55" height="55" viewBox="0 0 55 55" fill="none" xmlns="http://www.w3.org/2000/svg">
<path d="M41.25 36.2929C44.5864 37.9689 47.447 40.6586 49.5349 44.0221C49.9484 44.6881 50.1551 45.0212 50.2266 45.4823C50.3719 46.4195 49.731 47.5716 48.8582 47.9425C48.4287 48.125 47.9455 48.125 46.9792 48.125M36.6667 26.4281C40.0623 24.7406 42.3958 21.2366 42.3958 17.1875C42.3958 13.1384 40.0623 9.63442 36.6667 7.94695M32.0833 17.1875C32.0833 22.8829 27.4663 27.5 21.7708 27.5C16.0754 27.5 11.4583 22.8829 11.4583 17.1875C11.4583 11.4921 16.0754 6.875 21.7708 6.875C27.4663 6.875 32.0833 11.4921 32.0833 17.1875ZM5.8649 43.4004C9.51852 37.9146 15.284 34.375 21.7708 34.375C28.2577 34.375 34.0231 37.9146 37.6768 43.4004C38.4772 44.6021 38.8774 45.203 38.8313 45.9706C38.7954 46.5683 38.4036 47.3 37.9261 47.6612C37.3127 48.125 36.4692 48.125 34.7821 48.125H8.75956C7.07247 48.125 6.22892 48.125 5.61558 47.6612C5.13802 47.3 4.74624 46.5683 4.71036 45.9706C4.66429 45.203 5.06449 44.6021 5.8649 43.4004Z" stroke="url(#paint0_linear_121_218)" stroke-width="4" stroke-linecap="round" stroke-linejoin="round"/>
<defs>
<linearGradient id="paint0_linear_121_218" x1="50.2472" y1="44.0736" x2="5.5753" y2="42.5699" gradientUnits="userSpaceOnUse">
<stop stop-color="#00A3FF"/>
<stop offset="1" stop-color="#006EDC"/>
</linearGradient>
</defs>
</svg>
